<mxfile host="Electron" modified="2023-10-16T15:47:17.731Z" agent="Mozilla/5.0 (Windows NT 10.0; Win64; x64) AppleWebKit/537.36 (KHTML, like Gecko) draw.io/22.0.0 Chrome/114.0.5735.289 Electron/25.8.3 Safari/537.36" etag="fPDbLWSatkvTkZ8-G87X" version="22.0.0" type="device">
  <diagram name="Page-1" id="U_HJIQiXyyQITteJd8Ai">
    <mxGraphModel dx="1050" dy="621" grid="1" gridSize="10" guides="1" tooltips="1" connect="1" arrows="1" fold="1" page="1" pageScale="1" pageWidth="850" pageHeight="1100" math="0" shadow="0">
      <root>
        <mxCell id="0" />
        <mxCell id="1" parent="0" />
        <mxCell id="j0TCoYzlLEWcFr1gE0Wx-1" value="Маnufacturer" style="html=1;whiteSpace=wrap;" parent="1" vertex="1">
          <mxGeometry x="380" y="60" width="110" height="50" as="geometry" />
        </mxCell>
        <mxCell id="17qH06IllyJhuKljJ-RB-3" style="edgeStyle=orthogonalEdgeStyle;rounded=0;orthogonalLoop=1;jettySize=auto;html=1;exitX=0.5;exitY=1;exitDx=0;exitDy=0;entryX=0.5;entryY=0;entryDx=0;entryDy=0;" parent="1" source="j0TCoYzlLEWcFr1gE0Wx-2" target="j0TCoYzlLEWcFr1gE0Wx-4" edge="1">
          <mxGeometry relative="1" as="geometry" />
        </mxCell>
        <mxCell id="j0TCoYzlLEWcFr1gE0Wx-2" value="Supplier" style="html=1;whiteSpace=wrap;" parent="1" vertex="1">
          <mxGeometry x="200" y="60" width="110" height="50" as="geometry" />
        </mxCell>
        <mxCell id="j0TCoYzlLEWcFr1gE0Wx-3" value="Product" style="html=1;whiteSpace=wrap;" parent="1" vertex="1">
          <mxGeometry x="380" y="170" width="110" height="50" as="geometry" />
        </mxCell>
        <mxCell id="j0TCoYzlLEWcFr1gE0Wx-4" value="Material" style="html=1;whiteSpace=wrap;" parent="1" vertex="1">
          <mxGeometry x="200" y="170" width="110" height="50" as="geometry" />
        </mxCell>
        <mxCell id="j0TCoYzlLEWcFr1gE0Wx-5" value="Distributor" style="html=1;whiteSpace=wrap;" parent="1" vertex="1">
          <mxGeometry x="550" y="170" width="110" height="50" as="geometry" />
        </mxCell>
        <mxCell id="j0TCoYzlLEWcFr1gE0Wx-6" value="Retail" style="html=1;whiteSpace=wrap;" parent="1" vertex="1">
          <mxGeometry x="550" y="290" width="110" height="50" as="geometry" />
        </mxCell>
        <mxCell id="j0TCoYzlLEWcFr1gE0Wx-21" value="&lt;p style=&quot;margin:0px;margin-top:4px;text-align:center;text-decoration:underline;&quot;&gt;&lt;b&gt;LeatherShoeFactory&lt;/b&gt;&lt;/p&gt;&lt;p style=&quot;margin:0px;margin-top:4px;text-align:center;text-decoration:underline;&quot;&gt;&lt;b&gt;:Manufacturer&lt;/b&gt;&lt;/p&gt;&lt;hr&gt;&lt;p style=&quot;margin:0px;margin-left:8px;&quot;&gt;brand = &quot;WearMatter&quot;&amp;nbsp;&lt;br&gt;location = &quot;HaiPhong&lt;span style=&quot;white-space: pre;&quot;&gt;&#x9;&lt;/span&gt;&lt;br&gt;finance = 1000000&lt;/p&gt;" style="verticalAlign=top;align=left;overflow=fill;fontSize=12;fontFamily=Helvetica;html=1;whiteSpace=wrap;" parent="1" vertex="1">
          <mxGeometry x="410" y="400" width="160" height="100" as="geometry" />
        </mxCell>
        <mxCell id="j0TCoYzlLEWcFr1gE0Wx-22" value="&lt;p style=&quot;margin:0px;margin-top:4px;text-align:center;text-decoration:underline;&quot;&gt;&lt;b&gt;Supplier:Supplier&lt;/b&gt;&lt;/p&gt;&lt;hr&gt;&lt;p style=&quot;margin:0px;margin-left:8px;&quot;&gt;name = &quot;SupplierX&quot;&lt;br&gt;bill = 100000&lt;/p&gt;" style="verticalAlign=top;align=left;overflow=fill;fontSize=12;fontFamily=Helvetica;html=1;whiteSpace=wrap;" parent="1" vertex="1">
          <mxGeometry x="150" y="400" width="160" height="70" as="geometry" />
        </mxCell>
        <mxCell id="j0TCoYzlLEWcFr1gE0Wx-23" value="&lt;p style=&quot;margin:0px;margin-top:4px;text-align:center;text-decoration:underline;&quot;&gt;&lt;b&gt;Material:Material&lt;/b&gt;&lt;/p&gt;&lt;hr&gt;&lt;p style=&quot;margin:0px;margin-left:8px;&quot;&gt;materialCode&amp;nbsp; = 1001&lt;br&gt;materialName&amp;nbsp; = &quot;leather&quot;&lt;/p&gt;&lt;p style=&quot;margin:0px;margin-left:8px;&quot;&gt;cost = 100&lt;/p&gt;&lt;p style=&quot;margin:0px;margin-left:8px;&quot;&gt;&lt;br&gt;&lt;/p&gt;" style="verticalAlign=top;align=left;overflow=fill;fontSize=12;fontFamily=Helvetica;html=1;whiteSpace=wrap;" parent="1" vertex="1">
          <mxGeometry x="150" y="736" width="160" height="84" as="geometry" />
        </mxCell>
        <mxCell id="j0TCoYzlLEWcFr1gE0Wx-24" value="&lt;p style=&quot;margin:0px;margin-top:4px;text-align:center;text-decoration:underline;&quot;&gt;&lt;b&gt;Supply:Source&lt;/b&gt;&lt;/p&gt;&lt;hr&gt;&lt;p style=&quot;margin:0px;margin-left:8px;&quot;&gt;quantity = 1000&amp;nbsp;&lt;/p&gt;&lt;p style=&quot;border-color: var(--border-color); margin: 0px 0px 0px 8px;&quot;&gt;materialCode&amp;nbsp; = 1001&lt;br style=&quot;border-color: var(--border-color);&quot;&gt;materialName&amp;nbsp; = &quot;leather&quot;&lt;/p&gt;&lt;p style=&quot;border-color: var(--border-color); margin: 0px 0px 0px 8px;&quot;&gt;cost = 100&lt;/p&gt;&lt;p style=&quot;border-color: var(--border-color); margin: 0px 0px 0px 8px;&quot;&gt;&lt;br style=&quot;border-color: var(--border-color);&quot;&gt;&lt;/p&gt;&lt;p style=&quot;margin:0px;margin-left:8px;&quot;&gt;&amp;nbsp;&lt;br&gt;&lt;/p&gt;" style="verticalAlign=top;align=left;overflow=fill;fontSize=12;fontFamily=Helvetica;html=1;whiteSpace=wrap;" parent="1" vertex="1">
          <mxGeometry x="150" y="560" width="160" height="90" as="geometry" />
        </mxCell>
        <mxCell id="j0TCoYzlLEWcFr1gE0Wx-28" value="&lt;p style=&quot;margin:0px;margin-top:4px;text-align:center;text-decoration:underline;&quot;&gt;&lt;b&gt;Component:Raw&lt;/b&gt;&lt;/p&gt;&lt;hr&gt;&lt;p style=&quot;margin:0px;margin-left:8px;&quot;&gt;unit = 500&amp;nbsp;&lt;br&gt;&lt;/p&gt;&lt;p style=&quot;border-color: var(--border-color); margin: 0px 0px 0px 8px;&quot;&gt;materialCode&amp;nbsp; = 1001&lt;br style=&quot;border-color: var(--border-color);&quot;&gt;materialName&amp;nbsp; = &quot;leather&quot;&lt;/p&gt;&lt;p style=&quot;border-color: var(--border-color); margin: 0px 0px 0px 8px;&quot;&gt;cost = 100&lt;/p&gt;&lt;p style=&quot;border-color: var(--border-color); margin: 0px 0px 0px 8px;&quot;&gt;&lt;br style=&quot;border-color: var(--border-color);&quot;&gt;&lt;/p&gt;" style="verticalAlign=top;align=left;overflow=fill;fontSize=12;fontFamily=Helvetica;html=1;whiteSpace=wrap;" parent="1" vertex="1">
          <mxGeometry x="390" y="745" width="200" height="95" as="geometry" />
        </mxCell>
        <mxCell id="j0TCoYzlLEWcFr1gE0Wx-29" value="&lt;p style=&quot;margin:0px;margin-top:4px;text-align:center;text-decoration:underline;&quot;&gt;&lt;b&gt;product:Product&lt;/b&gt;&lt;/p&gt;&lt;hr&gt;&lt;p style=&quot;margin:0px;margin-left:8px;&quot;&gt;productCode = 0001&lt;/p&gt;&lt;p style=&quot;margin:0px;margin-left:8px;&quot;&gt;productName = &quot;WinterShoe&quot;&lt;/p&gt;&lt;p style=&quot;margin:0px;margin-left:8px;&quot;&gt;quantity = 300&lt;/p&gt;&lt;p style=&quot;margin:0px;margin-left:8px;&quot;&gt;produceCost = 5000&lt;br&gt;&lt;/p&gt;" style="verticalAlign=top;align=left;overflow=fill;fontSize=12;fontFamily=Helvetica;html=1;whiteSpace=wrap;" parent="1" vertex="1">
          <mxGeometry x="400" y="585" width="180" height="100" as="geometry" />
        </mxCell>
        <mxCell id="j0TCoYzlLEWcFr1gE0Wx-30" value="&lt;p style=&quot;margin:0px;margin-top:4px;text-align:center;text-decoration:underline;&quot;&gt;&lt;b&gt;Distributor:Distributor&lt;/b&gt;&lt;/p&gt;&lt;hr&gt;&lt;p style=&quot;margin:0px;margin-left:8px;&quot;&gt;nameDistributor = &quot;GusFring&quot;&lt;/p&gt;&lt;p style=&quot;margin:0px;margin-left:8px;&quot;&gt;finance = 50000&lt;br&gt;profit = 0.2&amp;nbsp;&lt;/p&gt;" style="verticalAlign=top;align=left;overflow=fill;fontSize=12;fontFamily=Helvetica;html=1;whiteSpace=wrap;" parent="1" vertex="1">
          <mxGeometry x="660" y="400" width="200" height="90" as="geometry" />
        </mxCell>
        <mxCell id="j0TCoYzlLEWcFr1gE0Wx-31" value="&lt;p style=&quot;margin:0px;margin-top:4px;text-align:center;text-decoration:underline;&quot;&gt;&lt;b&gt;Shop:Retail&lt;/b&gt;&lt;/p&gt;&lt;hr&gt;&lt;p style=&quot;margin:0px;margin-left:8px;&quot;&gt;codeRetail =1231&lt;br&gt;addressRetail = &quot;Hanoi&quot;&amp;nbsp;&lt;br&gt;&lt;br&gt;&lt;/p&gt;" style="verticalAlign=top;align=left;overflow=fill;fontSize=12;fontFamily=Helvetica;html=1;whiteSpace=wrap;" parent="1" vertex="1">
          <mxGeometry x="700" y="750" width="160" height="70" as="geometry" />
        </mxCell>
        <mxCell id="j0TCoYzlLEWcFr1gE0Wx-35" value="" style="endArrow=block;endSize=16;endFill=0;html=1;rounded=0;exitX=0;exitY=0.5;exitDx=0;exitDy=0;entryX=1.004;entryY=0.665;entryDx=0;entryDy=0;entryPerimeter=0;" parent="1" source="j0TCoYzlLEWcFr1gE0Wx-28" target="j0TCoYzlLEWcFr1gE0Wx-23" edge="1">
          <mxGeometry width="160" relative="1" as="geometry">
            <mxPoint x="320" y="830" as="sourcePoint" />
            <mxPoint x="480" y="830" as="targetPoint" />
          </mxGeometry>
        </mxCell>
        <mxCell id="j0TCoYzlLEWcFr1gE0Wx-36" value="" style="endArrow=block;endSize=16;endFill=0;html=1;rounded=0;exitX=0.5;exitY=1;exitDx=0;exitDy=0;entryX=0.5;entryY=0;entryDx=0;entryDy=0;" parent="1" source="j0TCoYzlLEWcFr1gE0Wx-24" target="j0TCoYzlLEWcFr1gE0Wx-23" edge="1">
          <mxGeometry width="160" relative="1" as="geometry">
            <mxPoint x="410" y="780" as="sourcePoint" />
            <mxPoint x="321" y="780" as="targetPoint" />
          </mxGeometry>
        </mxCell>
        <mxCell id="j0TCoYzlLEWcFr1gE0Wx-37" value="products" style="text;align=center;fontStyle=1;verticalAlign=middle;spacingLeft=3;spacingRight=3;strokeColor=none;rotatable=0;points=[[0,0.5],[1,0.5]];portConstraint=eastwest;html=1;" parent="1" vertex="1">
          <mxGeometry x="490" y="550" width="80" height="26" as="geometry" />
        </mxCell>
        <mxCell id="j0TCoYzlLEWcFr1gE0Wx-40" value="components" style="text;align=center;fontStyle=1;verticalAlign=middle;spacingLeft=3;spacingRight=3;strokeColor=none;rotatable=0;points=[[0,0.5],[1,0.5]];portConstraint=eastwest;html=1;" parent="1" vertex="1">
          <mxGeometry x="490" y="724" width="80" height="26" as="geometry" />
        </mxCell>
        <mxCell id="j0TCoYzlLEWcFr1gE0Wx-42" value="supply" style="text;align=center;fontStyle=1;verticalAlign=middle;spacingLeft=3;spacingRight=3;strokeColor=none;rotatable=0;points=[[0,0.5],[1,0.5]];portConstraint=eastwest;html=1;" parent="1" vertex="1">
          <mxGeometry x="220" y="524" width="80" height="26" as="geometry" />
        </mxCell>
        <mxCell id="j0TCoYzlLEWcFr1gE0Wx-44" value="productInStock" style="text;align=center;fontStyle=1;verticalAlign=middle;spacingLeft=3;spacingRight=3;strokeColor=none;rotatable=0;points=[[0,0.5],[1,0.5]];portConstraint=eastwest;html=1;" parent="1" vertex="1">
          <mxGeometry x="610" y="765" width="80" height="26" as="geometry" />
        </mxCell>
        <mxCell id="j0TCoYzlLEWcFr1gE0Wx-46" value="productDistributor" style="text;align=center;fontStyle=1;verticalAlign=middle;spacingLeft=3;spacingRight=3;strokeColor=none;rotatable=0;points=[[0,0.5],[1,0.5]];portConstraint=eastwest;html=1;" parent="1" vertex="1">
          <mxGeometry x="600" y="612" width="80" height="26" as="geometry" />
        </mxCell>
        <mxCell id="j0TCoYzlLEWcFr1gE0Wx-52" value="retailers" style="text;align=center;fontStyle=1;verticalAlign=middle;spacingLeft=3;spacingRight=3;strokeColor=none;rotatable=0;points=[[0,0.5],[1,0.5]];portConstraint=eastwest;html=1;" parent="1" vertex="1">
          <mxGeometry x="726.25" y="685" width="67.5" height="26" as="geometry" />
        </mxCell>
        <mxCell id="17qH06IllyJhuKljJ-RB-2" value="" style="html=1;verticalAlign=bottom;endArrow=block;curved=0;rounded=0;exitX=0.5;exitY=1;exitDx=0;exitDy=0;entryX=0.5;entryY=0;entryDx=0;entryDy=0;" parent="1" source="j0TCoYzlLEWcFr1gE0Wx-22" target="j0TCoYzlLEWcFr1gE0Wx-24" edge="1">
          <mxGeometry width="80" relative="1" as="geometry">
            <mxPoint x="380" y="510" as="sourcePoint" />
            <mxPoint x="460" y="510" as="targetPoint" />
          </mxGeometry>
        </mxCell>
        <mxCell id="kBILqK4hK68NzXFMSvor-1" value="&lt;b&gt;&lt;font style=&quot;font-size: 24px;&quot;&gt;ПМО&lt;/font&gt;&lt;/b&gt;" style="text;html=1;strokeColor=none;fillColor=none;align=center;verticalAlign=middle;whiteSpace=wrap;rounded=0;" parent="1" vertex="1">
          <mxGeometry x="40" y="110" width="60" height="30" as="geometry" />
        </mxCell>
        <mxCell id="kBILqK4hK68NzXFMSvor-2" value="&lt;b&gt;&lt;font style=&quot;font-size: 24px;&quot;&gt;Диаграмм Объектов&lt;/font&gt;&lt;/b&gt;" style="text;html=1;strokeColor=none;fillColor=none;align=center;verticalAlign=middle;whiteSpace=wrap;rounded=0;" parent="1" vertex="1">
          <mxGeometry x="50" y="510" width="60" height="30" as="geometry" />
        </mxCell>
        <mxCell id="LuWdPOD-R3_tDiCQiKon-2" value="1" style="endArrow=open;html=1;endSize=12;startArrow=diamondThin;startSize=14;startFill=1;edgeStyle=orthogonalEdgeStyle;align=left;verticalAlign=bottom;rounded=0;exitX=0.5;exitY=1;exitDx=0;exitDy=0;entryX=0.5;entryY=0;entryDx=0;entryDy=0;" parent="1" edge="1">
          <mxGeometry x="-1" y="3" relative="1" as="geometry">
            <mxPoint x="1420" y="450" as="sourcePoint" />
            <mxPoint x="1420" y="510" as="targetPoint" />
          </mxGeometry>
        </mxCell>
        <mxCell id="oW5x7mOVUETR5qiOYJot-3" value="" style="endArrow=diamondThin;endFill=1;endSize=24;html=1;rounded=0;entryX=0.015;entryY=0.646;entryDx=0;entryDy=0;entryPerimeter=0;exitX=1;exitY=0.5;exitDx=0;exitDy=0;" parent="1" source="j0TCoYzlLEWcFr1gE0Wx-28" target="j0TCoYzlLEWcFr1gE0Wx-31" edge="1">
          <mxGeometry width="160" relative="1" as="geometry">
            <mxPoint x="525" y="769.5" as="sourcePoint" />
            <mxPoint x="685" y="769.5" as="targetPoint" />
          </mxGeometry>
        </mxCell>
        <mxCell id="oW5x7mOVUETR5qiOYJot-5" value="" style="endArrow=diamondThin;endFill=1;endSize=24;html=1;rounded=0;entryX=0.5;entryY=1;entryDx=0;entryDy=0;exitX=0.5;exitY=0;exitDx=0;exitDy=0;" parent="1" source="j0TCoYzlLEWcFr1gE0Wx-28" target="j0TCoYzlLEWcFr1gE0Wx-29" edge="1">
          <mxGeometry width="160" relative="1" as="geometry">
            <mxPoint x="260" y="910" as="sourcePoint" />
            <mxPoint x="420" y="910" as="targetPoint" />
          </mxGeometry>
        </mxCell>
        <mxCell id="oW5x7mOVUETR5qiOYJot-6" value="" style="endArrow=diamondThin;endFill=1;endSize=24;html=1;rounded=0;entryX=0.5;entryY=1;entryDx=0;entryDy=0;exitX=0.5;exitY=0;exitDx=0;exitDy=0;" parent="1" source="j0TCoYzlLEWcFr1gE0Wx-29" target="j0TCoYzlLEWcFr1gE0Wx-21" edge="1">
          <mxGeometry width="160" relative="1" as="geometry">
            <mxPoint x="450" y="610" as="sourcePoint" />
            <mxPoint x="610" y="610" as="targetPoint" />
          </mxGeometry>
        </mxCell>
        <mxCell id="oW5x7mOVUETR5qiOYJot-7" value="" style="endArrow=diamondThin;endFill=1;endSize=24;html=1;rounded=0;entryX=0.364;entryY=1.02;entryDx=0;entryDy=0;entryPerimeter=0;exitX=1;exitY=0.25;exitDx=0;exitDy=0;" parent="1" source="j0TCoYzlLEWcFr1gE0Wx-29" target="j0TCoYzlLEWcFr1gE0Wx-30" edge="1">
          <mxGeometry width="160" relative="1" as="geometry">
            <mxPoint x="450" y="610" as="sourcePoint" />
            <mxPoint x="610" y="610" as="targetPoint" />
            <Array as="points">
              <mxPoint x="733" y="610" />
            </Array>
          </mxGeometry>
        </mxCell>
        <mxCell id="oW5x7mOVUETR5qiOYJot-8" value="" style="endArrow=diamondThin;endFill=1;endSize=24;html=1;rounded=0;entryX=0.75;entryY=1;entryDx=0;entryDy=0;exitX=0.705;exitY=0.017;exitDx=0;exitDy=0;exitPerimeter=0;" parent="1" source="j0TCoYzlLEWcFr1gE0Wx-31" target="j0TCoYzlLEWcFr1gE0Wx-30" edge="1">
          <mxGeometry width="160" relative="1" as="geometry">
            <mxPoint x="810" y="720" as="sourcePoint" />
            <mxPoint x="610" y="610" as="targetPoint" />
          </mxGeometry>
        </mxCell>
        <mxCell id="oW5x7mOVUETR5qiOYJot-9" value="" style="endArrow=diamondThin;endFill=1;endSize=24;html=1;rounded=0;entryX=0;entryY=0.5;entryDx=0;entryDy=0;exitX=0.5;exitY=1;exitDx=0;exitDy=0;" parent="1" edge="1">
          <mxGeometry width="160" relative="1" as="geometry">
            <mxPoint x="435" y="218" as="sourcePoint" />
            <mxPoint x="550" y="313" as="targetPoint" />
            <Array as="points">
              <mxPoint x="435" y="313" />
            </Array>
          </mxGeometry>
        </mxCell>
        <mxCell id="oW5x7mOVUETR5qiOYJot-10" value="" style="endArrow=diamondThin;endFill=1;endSize=24;html=1;rounded=0;exitX=1;exitY=0.5;exitDx=0;exitDy=0;entryX=0;entryY=0.5;entryDx=0;entryDy=0;" parent="1" source="j0TCoYzlLEWcFr1gE0Wx-3" target="j0TCoYzlLEWcFr1gE0Wx-5" edge="1">
          <mxGeometry width="160" relative="1" as="geometry">
            <mxPoint x="550" y="120" as="sourcePoint" />
            <mxPoint x="710" y="120" as="targetPoint" />
          </mxGeometry>
        </mxCell>
        <mxCell id="oW5x7mOVUETR5qiOYJot-11" value="" style="endArrow=diamondThin;endFill=1;endSize=24;html=1;rounded=0;entryX=0.5;entryY=1;entryDx=0;entryDy=0;exitX=0.5;exitY=0;exitDx=0;exitDy=0;" parent="1" source="j0TCoYzlLEWcFr1gE0Wx-6" target="j0TCoYzlLEWcFr1gE0Wx-5" edge="1">
          <mxGeometry width="160" relative="1" as="geometry">
            <mxPoint x="450" y="310" as="sourcePoint" />
            <mxPoint x="610" y="310" as="targetPoint" />
          </mxGeometry>
        </mxCell>
        <mxCell id="oW5x7mOVUETR5qiOYJot-12" value="" style="endArrow=diamondThin;endFill=1;endSize=24;html=1;rounded=0;entryX=0.5;entryY=1;entryDx=0;entryDy=0;exitX=0.5;exitY=0;exitDx=0;exitDy=0;" parent="1" source="j0TCoYzlLEWcFr1gE0Wx-3" target="j0TCoYzlLEWcFr1gE0Wx-1" edge="1">
          <mxGeometry width="160" relative="1" as="geometry">
            <mxPoint x="450" y="310" as="sourcePoint" />
            <mxPoint x="610" y="310" as="targetPoint" />
            <Array as="points">
              <mxPoint x="435" y="170" />
            </Array>
          </mxGeometry>
        </mxCell>
        <mxCell id="oW5x7mOVUETR5qiOYJot-13" value="" style="endArrow=diamondThin;endFill=1;endSize=24;html=1;rounded=0;entryX=0;entryY=0.5;entryDx=0;entryDy=0;exitX=1;exitY=0.5;exitDx=0;exitDy=0;" parent="1" source="j0TCoYzlLEWcFr1gE0Wx-4" target="j0TCoYzlLEWcFr1gE0Wx-3" edge="1">
          <mxGeometry width="160" relative="1" as="geometry">
            <mxPoint x="340" y="270" as="sourcePoint" />
            <mxPoint x="610" y="310" as="targetPoint" />
          </mxGeometry>
        </mxCell>
      </root>
    </mxGraphModel>
  </diagram>
</mxfile>
